<svg width="100" height="32" viewBox="0 0 100 32" fill="none" xmlns="http://www.w3.org/2000/svg">
<path fill-rule="evenodd" clip-rule="evenodd" d="M26.9617 25.2736C26.7432 26.898 25.6497 28.3043 24.1192 28.9291C23.3696 29.2411 22.5569 29.3351 21.7452 29.2411C20.9644 29.1472 20.1829 28.8972 19.3712 28.4291C18.2464 27.8037 17.122 26.8359 15.8097 25.3984C17.8713 22.8684 19.1209 20.5561 19.5896 18.4948C19.8084 17.5261 19.8399 16.6516 19.7457 15.839C19.6212 15.0581 19.3397 14.3394 18.9024 13.7146C17.9334 12.3083 16.3087 11.4966 14.4973 11.4966C12.686 11.4966 11.0613 12.3402 10.0929 13.7146C9.65567 14.3394 9.37418 15.0581 9.24933 15.839C9.12448 16.6516 9.1554 17.5573 9.40537 18.4948C9.87381 20.5561 11.1546 22.8993 13.185 25.4296C11.9042 26.8668 10.7483 27.8355 9.62351 28.4603C8.81116 28.9291 8.03065 29.179 7.24979 29.2723C6.40656 29.3663 5.59388 29.2411 4.87546 28.9603C3.345 28.3354 2.25144 26.9292 2.03299 25.3048C1.93936 24.524 2.00147 23.7431 2.31418 22.8683C2.4075 22.5557 2.56415 22.2435 2.72019 21.8687C2.93897 21.3688 3.18833 20.8373 3.43863 20.3064L3.47015 20.2443C5.62539 15.5892 7.93701 10.8409 10.3426 6.21764L10.4362 6.02977C10.6865 5.56166 10.9365 5.06169 11.1861 4.59294C11.4361 4.093 11.717 3.62422 12.0609 3.21788C12.7169 2.46889 13.5914 2.06224 14.5601 2.06224C15.5288 2.06224 16.4033 2.46889 17.0593 3.21788C17.4032 3.62517 17.6841 4.09392 17.9341 4.59294C18.1843 5.06169 18.4343 5.56166 18.6837 6.02977L18.7776 6.21764C21.1465 10.8601 23.4274 15.5469 25.6191 20.2755L25.6192 20.3068C25.8694 20.8073 26.0879 21.3691 26.3379 21.8697C26.4939 22.2439 26.6503 22.556 26.7439 22.8686C26.9933 23.68 27.0869 24.4615 26.9617 25.2736L26.9617 25.2736ZM14.4976 23.8052C12.8105 21.6809 11.717 19.6816 11.3425 17.9951C11.1864 17.2764 11.1549 16.6516 11.2489 16.0892C11.311 15.5893 11.4988 15.1517 11.7488 14.7769C12.3424 13.934 13.342 13.4025 14.498 13.4025C15.6542 13.4025 16.6851 13.9025 17.2474 14.7769C17.4974 15.1517 17.6847 15.5896 17.7477 16.0892C17.841 16.6519 17.8098 17.3076 17.6538 17.9951C17.2777 19.6504 16.1842 21.65 14.4976 23.8052ZM28.5864 22.1808C28.4304 21.806 28.274 21.4 28.118 21.0561C27.8677 20.494 27.6177 19.9625 27.3996 19.4629L27.3684 19.4317C25.2125 14.7454 22.9012 9.9973 20.4641 5.3117L20.3705 5.12383C20.1142 4.63775 19.8644 4.14824 19.6212 3.65548C19.3084 3.09277 18.9964 2.49981 18.4964 1.93713C17.4968 0.68753 16.0597 0 14.5292 0C12.9669 0 11.5612 0.68753 10.5307 1.87439C10.062 2.43646 9.71808 3.03003 9.40597 3.59274C9.1622 4.0852 8.91238 4.5747 8.65667 5.06109L8.56274 5.24896C6.15719 9.93463 3.81436 14.683 1.65878 19.369L1.62726 19.431C1.40878 19.9316 1.15851 20.4625 0.90854 21.0242C0.75247 21.3682 0.59644 21.743 0.4404 22.149C0.0340599 23.3047 -0.0910901 24.3982 0.0655799 25.5233C0.40921 27.8664 1.97085 29.8338 4.12674 30.7092C4.93912 31.0531 5.78268 31.2092 6.65714 31.2092C6.90714 31.2092 7.21921 31.1779 7.46952 31.1464C8.50062 31.0216 9.56266 30.6783 10.5938 30.0847C11.8746 29.366 13.093 28.3355 14.4674 26.8359C15.8418 28.3355 17.0914 29.366 18.341 30.0847C19.3724 30.6783 20.4341 31.0216 21.4649 31.1464C21.7149 31.1783 22.0277 31.2092 22.2776 31.2092C23.1524 31.2092 24.0269 31.0531 24.8077 30.7092C26.9948 29.8338 28.5252 27.8352 28.8692 25.5233C29.1173 24.4301 28.9924 23.3371 28.5864 22.1808L28.5864 22.1808ZM59.7322 11.1839C60.6379 11.1839 61.1067 11.3406 61.1067 11.3406V14.1206C61.1067 14.1206 58.6074 13.277 57.0458 15.0581V23.274H54.0464V11.4966H56.5771C56.827 11.4966 57.0139 11.7154 57.0139 11.9341V12.4341C57.577 11.7778 58.7953 11.1839 59.7322 11.1839ZM67.8542 20.7125C66.6986 20.7125 65.7929 20.1195 65.3242 19.4317V15.2453C65.7929 14.6205 66.7925 13.9646 67.8542 13.9646C69.8541 13.9646 71.3845 15.2142 71.3845 17.3385C71.3845 19.4629 69.8541 20.7125 67.8542 20.7125ZM68.3542 11.1839C66.2929 11.1839 65.3242 12.4341 65.3242 12.4341V5.84255H62.3253V23.2431H64.8554C65.1054 23.2431 65.2929 23.0244 65.2929 22.8056V22.2748C65.2929 22.2748 66.2617 23.5556 68.323 23.5556C71.7284 23.5556 74.3837 20.9322 74.3837 17.3706C74.4149 13.8088 71.7597 11.1839 68.3542 11.1839L68.3542 11.1839ZM86.3802 16.2768V23.2744H83.3808V16.6201C83.3808 14.6836 82.756 13.9021 81.0701 13.9021C80.1645 13.9021 79.227 14.3709 78.6324 15.0584V23.2435H75.6342V11.4969H78.0076C78.2576 11.4969 78.4452 11.7157 78.4452 11.9344V12.4344C79.3199 11.5281 80.4756 11.1842 81.6313 11.1842C82.9436 11.1842 84.0371 11.5596 84.9119 12.3092C85.9736 13.184 86.3802 14.3085 86.3802 16.2768ZM93.4714 20.7125C92.3151 20.7125 91.4095 20.1195 90.9407 19.4317V15.2453C91.4095 14.6205 92.4091 13.9646 93.4714 13.9646C95.4707 13.9646 97.0014 15.2142 97.0014 17.3385C97.0014 19.4629 95.471 20.7125 93.4714 20.7125ZM93.9714 11.1839C91.9094 11.1839 90.9407 12.4341 90.9407 12.4341V5.84255H87.9419V23.2431H90.4726C90.7226 23.2431 90.9095 23.0244 90.9095 22.8056V22.2748C90.9095 22.2748 91.8783 23.5556 93.9396 23.5556C97.345 23.5556 100 20.9322 100 17.3706C100 13.8091 97.345 11.1839 93.9714 11.1839V11.1839ZM49.1731 11.4966H52.172V23.2431H49.1731V11.4966ZM44.3308 19.4629C43.8627 20.1504 42.9252 20.744 41.8007 20.744C39.8015 20.744 38.2704 19.4944 38.2704 17.3697C38.2704 15.2453 39.8015 13.9958 41.8007 13.9958C42.8943 13.9958 43.8939 14.6206 44.3308 15.2766V19.4629ZM44.3308 11.9344V12.4344C44.3308 12.4344 43.3627 11.1842 41.3008 11.1842C37.8959 11.1842 35.2401 13.7773 35.2401 17.3698C35.2401 20.9312 37.8647 23.5552 41.3008 23.5552C43.3939 23.5552 44.3308 22.2745 44.3308 22.2745V22.8053C44.3308 23.0553 44.5187 23.2422 44.7683 23.2422H47.2984V11.4957H44.7683C44.5187 11.4966 44.3308 11.7157 44.3308 11.9345L44.3308 11.9344ZM52.7034 7.84176C52.7034 8.96652 51.7971 9.87219 50.6724 9.87219C49.5476 9.87219 48.6419 8.96652 48.6419 7.84176C48.6419 6.717 49.5167 5.81133 50.6724 5.81133C51.829 5.84255 52.7034 6.74852 52.7034 7.84176Z" fill="white"/>
</svg>
