<svg width="92" height="33" viewBox="0 0 92 33" fill="none" xmlns="http://www.w3.org/2000/svg">
<g filter="url(#filter0_d_31_290)">
<path fill-rule="evenodd" clip-rule="evenodd" d="M55.9522 19.573C51.1654 23.1136 44.2029 24.9999 38.1976 24.9999C29.7845 24.9999 22.2417 21.8947 16.4976 16.729C16.0624 16.3227 16.4395 15.7713 16.9907 16.0905C23.17 19.6891 30.7999 21.8367 38.6908 21.8367C43.9998 21.8367 49.86 20.7339 55.256 18.4412C56.0683 18.122 56.7355 18.9926 55.9522 19.573L55.9522 19.573Z" fill="white"/>
<path fill-rule="evenodd" clip-rule="evenodd" d="M57.9534 17.2813C57.3446 16.4978 53.8945 16.9041 52.3579 17.1072C51.8941 17.1652 51.8071 16.759 52.242 16.4688C54.9962 14.5245 59.49 15.1049 60.0118 15.7433C60.5337 16.3817 59.8668 20.9086 57.2866 23.056C56.8807 23.3752 56.5038 23.2011 56.6777 22.7659C57.2576 21.3149 58.5622 18.0938 57.9534 17.2813Z" fill="white"/>
<path fill-rule="evenodd" clip-rule="evenodd" d="M14.7818 14.4972C14.6078 14.6423 14.3757 14.6713 14.1726 14.5552C13.3312 13.8589 13.1571 13.5108 12.6929 12.8434C11.3003 14.2651 10.2848 14.7003 8.48598 14.7003C6.33902 14.7003 4.65625 13.3657 4.65625 10.7255C4.65625 8.63654 5.78777 7.2439 7.38348 6.54758C8.7761 5.93833 10.72 5.82227 12.1997 5.6482V5.32905C12.1997 4.7198 12.2577 3.99446 11.8805 3.47221C11.5614 3.00801 10.9811 2.80491 10.4589 2.80491C9.47242 2.80491 8.60203 3.29814 8.39893 4.3426C8.34092 4.57472 8.19584 4.8068 7.96373 4.8068L5.49762 4.54572C5.29453 4.48768 5.06241 4.3426 5.12044 4.02347C5.7007 1.00611 8.39893 0.106689 10.836 0.106689C12.0836 0.106689 13.7083 0.425809 14.6948 1.38324C15.9423 2.54376 15.8263 4.1105 15.8263 5.79327V9.76806C15.8263 10.9576 16.3195 11.4798 16.7837 12.1472C16.9578 12.3793 16.9868 12.6694 16.7837 12.8144C16.2325 13.2496 15.3041 14.062 14.7818 14.4972L14.7818 14.4972ZM12.2287 8.25938C12.2287 9.24583 12.2577 10.0872 11.7645 10.9866C11.3583 11.7119 10.72 12.1471 9.99467 12.1471C9.0082 12.1471 8.42794 11.3928 8.42794 10.2903C8.42794 8.11433 10.3718 7.70811 12.2287 7.70811V8.25938ZM48.321 14.4972C48.147 14.6423 47.9149 14.6713 47.7118 14.5552C46.8704 13.8589 46.6963 13.5108 46.2321 12.8434C44.8395 14.2651 43.824 14.7003 42.0252 14.7003C39.8782 14.7003 38.1954 13.3657 38.1954 10.7255C38.1954 8.63654 39.327 7.2439 40.9227 6.54758C42.3153 5.93833 44.2592 5.82227 45.7389 5.6482V5.32905C45.7389 4.7198 45.7969 3.99446 45.4197 3.47221C45.1006 3.00801 44.5203 2.80491 43.9981 2.80491C43.0116 2.80491 42.1412 3.29814 41.9381 4.3426C41.8801 4.57472 41.735 4.8068 41.503 4.8068L39.0368 4.54572C38.8337 4.48768 38.6016 4.3426 38.6597 4.02347C39.2399 1.00611 41.9381 0.106689 44.3753 0.106689C45.6228 0.106689 47.2475 0.425809 48.234 1.38324C49.4816 2.54376 49.3655 4.1105 49.3655 5.79327V9.76806C49.3655 10.9576 49.8587 11.4798 50.3229 12.1472C50.497 12.3793 50.526 12.6694 50.3229 12.8144C49.7717 13.2496 48.8433 14.062 48.321 14.4972L48.321 14.4972ZM45.7389 8.25938C45.7389 9.24583 45.7679 10.0872 45.2747 10.9866C44.8685 11.7119 44.2302 12.1471 43.5049 12.1471C42.5184 12.1471 41.9381 11.3928 41.9381 10.2903C41.9381 8.11433 43.882 7.70811 45.7389 7.70811V8.25938ZM79.8293 14.5262H77.2762C77.0151 14.4972 76.812 14.2941 76.812 14.062V0.919059C76.841 0.686969 77.0441 0.483879 77.3052 0.483879H79.6843C79.9164 0.483879 80.0905 0.657949 80.1485 0.861019V2.86297H80.2065C80.9319 1.06411 81.9183 0.222739 83.6881 0.222739C84.8196 0.222739 85.9511 0.628929 86.6764 1.76043C87.3438 2.80492 87.3438 4.57473 87.3438 5.85131V14.12C87.3147 14.3522 87.1116 14.5262 86.8505 14.5262H84.2974C84.0653 14.4972 83.8622 14.3231 83.8332 14.12V6.98281C83.8332 5.53213 84.0072 3.4432 82.2374 3.4432C81.6282 3.4432 81.0479 3.84939 80.7578 4.48769C80.4096 5.30004 80.3516 6.08339 80.3516 6.98281V14.062C80.3226 14.3231 80.0905 14.5262 79.8293 14.5262L79.8293 14.5262ZM69.0655 2.92097C67.1796 2.92097 67.0636 5.50312 67.0636 7.09886C67.0636 8.69459 67.0345 12.1181 69.0364 12.1181C71.0093 12.1181 71.1254 9.36186 71.1254 7.67912C71.1254 6.57661 71.0674 5.24205 70.7482 4.19755C70.4581 3.26911 69.8778 2.92097 69.0655 2.92097ZM69.0655 0.222729C72.8662 0.222729 74.9261 3.47224 74.9261 7.62111C74.9261 11.6249 72.6631 14.8164 69.0655 14.8164C65.3518 14.8164 63.3209 11.5669 63.3209 7.50505C63.2918 3.4142 65.3518 0.222729 69.0655 0.222729ZM21.774 14.5262H19.2208C18.9888 14.4972 18.7857 14.3231 18.7566 14.091V0.977099C18.7566 0.715989 18.9888 0.512869 19.2499 0.512869H21.6289C21.8901 0.512869 22.0641 0.715999 22.0932 0.948079V2.65984H22.1512C22.7605 1.00609 23.95 0.222739 25.5167 0.222739C27.1124 0.222739 28.1279 1.0061 28.8242 2.65984C29.4335 1.00609 30.8551 0.222739 32.3638 0.222739C33.4373 0.222739 34.5978 0.657949 35.3232 1.67342C36.1355 2.7759 35.9614 4.3716 35.9614 5.79329V14.091C35.9614 14.3522 35.7293 14.5552 35.4682 14.5552H32.9441C32.683 14.5262 32.4799 14.3232 32.4799 14.091V7.12789C32.4799 6.57662 32.5379 5.18401 32.4218 4.66176C32.2187 3.79137 31.6675 3.53026 30.9131 3.53026C30.3039 3.53026 29.6366 3.93642 29.3755 4.60375C29.1143 5.27105 29.1433 6.37356 29.1433 7.12789V14.0911C29.1433 14.3522 28.9112 14.5553 28.6501 14.5553H26.0969C25.8358 14.5262 25.6327 14.3232 25.6327 14.0911V7.12789C25.6327 5.67724 25.8648 3.50124 24.066 3.50124C22.2382 3.50124 22.2962 5.5902 22.2962 7.12789V14.0911C22.2672 14.3232 22.0641 14.5262 21.774 14.5262L21.774 14.5262ZM52.4409 2.83393V0.948069C52.4409 0.657939 52.644 0.483869 52.9051 0.483869H61.3189C61.5801 0.483869 61.8122 0.686959 61.8122 0.948069V2.54377C61.8122 2.80491 61.5801 3.15305 61.1739 3.73331L56.8219 9.94214C58.4467 9.91312 60.1584 10.1452 61.6091 10.9576C61.9282 11.1317 62.0153 11.4218 62.0443 11.6829V13.6848C62.0443 13.975 61.7542 14.2941 61.435 14.12C58.8528 12.7564 55.4003 12.6113 52.557 14.149C52.2669 14.2941 51.9477 14.004 51.9477 13.7139V11.799C51.9477 11.5088 51.9477 10.9866 52.2669 10.5224L57.3151 3.29812H52.9341C52.673 3.29812 52.4409 3.09503 52.4409 2.83392L52.4409 2.83393Z" fill="white"/>
</g>
<defs>
<filter id="filter0_d_31_290" x="0.65625" y="0.106689" width="90.6875" height="32.8933" filterUnits="userSpaceOnUse" color-interpolation-filters="sRGB">
<feFlood flood-opacity="0" result="BackgroundImageFix"/>
<feColorMatrix in="SourceAlpha" type="matrix" values="0 0 0 0 0 0 0 0 0 0 0 0 0 0 0 0 0 0 127 0" result="hardAlpha"/>
<feOffset dy="4"/>
<feGaussianBlur stdDeviation="2"/>
<feComposite in2="hardAlpha" operator="out"/>
<feColorMatrix type="matrix" values="0 0 0 0 0 0 0 0 0 0 0 0 0 0 0 0 0 0 0.25 0"/>
<feBlend mode="normal" in2="BackgroundImageFix" result="effect1_dropShadow_31_290"/>
<feBlend mode="normal" in="SourceGraphic" in2="effect1_dropShadow_31_290" result="shape"/>
</filter>
</defs>
</svg>
