<svg width="39" height="45" viewBox="0 0 39 45" fill="none" xmlns="http://www.w3.org/2000/svg">
<path fill-rule="evenodd" clip-rule="evenodd" d="M30.6559 20.2926C30.7516 19.5354 30.8473 18.7278 30.8473 17.9201V5.8051H37.3556C37.1164 8.43002 35.9678 16.7086 30.6559 20.2926ZM21.7547 29.7322C21.1326 29.8836 20.5105 29.9846 19.8883 29.9846C19.1705 29.9846 18.4527 29.8836 17.7827 29.6817C17.6391 29.6313 17.3999 29.5303 17.3041 29.5303C13.3321 28.1169 10.3651 23.4728 10.3651 17.9706V1.56485H29.3638V4.5936V5.5527V17.9706C29.3638 23.4728 26.3967 28.1169 22.3768 29.5303M29.3637 39.9795V42.7558H10.4608V39.9795C14.6721 39.6261 17.9263 35.9411 18.022 31.2466C18.5962 31.3475 19.2184 31.4485 19.8405 31.4485C20.4148 31.4485 20.989 31.398 21.5154 31.2971C21.7069 35.8907 25.1046 39.6261 29.3638 39.9795L29.3637 39.9795ZM2.22962 5.8051H8.92941V17.9201C8.92941 18.7782 8.97726 19.5859 9.12083 20.3936C3.66529 16.961 2.4689 8.43001 2.22962 5.8051ZM38.5999 4.54312C38.4563 4.39168 38.2649 4.29073 38.0735 4.29073H30.7994V0.75719C30.7994 0.35336 30.4644 0 30.0816 0H9.64723C9.26439 0 8.9294 0.35335 8.9294 0.75719V4.29073H1.46392C1.2725 4.29073 1.08107 4.39169 0.937514 4.54312C0.793944 4.69456 0.746094 4.89647 0.746094 5.09839C0.746094 5.24983 0.889664 8.48049 1.99033 12.216C3.52171 17.2134 6.10591 20.7469 9.55152 22.3623C10.7001 26.4006 13.3321 29.5808 16.6342 30.8428V30.9942C16.6342 35.184 13.6193 38.5156 9.74295 38.5156C9.3601 38.5156 9.02511 38.8689 9.02511 39.2728V43.5635C9.02511 43.9673 9.3601 44.3207 9.74295 44.3207H30.0816C30.4644 44.3207 30.7994 43.9673 30.7994 43.5635V39.2728C30.7994 38.8689 30.4644 38.5156 30.0816 38.5156C26.1574 38.5156 22.9511 35.1335 22.9511 30.9942V30.8932C26.3967 29.6313 29.0766 26.4006 30.2251 22.2613C33.5272 20.5955 36.0635 17.1124 37.5471 12.216C38.6956 8.48049 38.7913 5.19935 38.7913 5.09839C38.8392 4.89647 38.7434 4.69456 38.5999 4.54312Z" fill="white"/>
</svg>
