<svg width="30" height="26" viewBox="0 0 30 26" fill="none" xmlns="http://www.w3.org/2000/svg">
<path fill-rule="evenodd" clip-rule="evenodd" d="M28.2393 2.83609C27.8547 2.83609 27.5251 2.50645 27.5251 2.12187C27.5251 1.73729 27.8547 1.40765 28.2393 1.40765C28.6239 1.40765 28.9535 1.73729 28.9535 2.12187C28.9535 2.56139 28.6239 2.83609 28.2393 2.83609ZM27.2504 14.1538V15.7471H25.6571V14.1538H27.2504ZM20.9322 16.2415C20.1081 16.9557 18.2402 18.8787 18.1303 21.9553H11.8671C11.7572 18.8237 9.88923 16.9008 9.06512 16.2415L14.4493 5.74793V11.5167C14.4493 11.8463 14.669 12.0661 14.9987 12.0661C15.3283 12.0661 15.5481 11.8463 15.5481 11.5167V5.74793L20.9322 16.2415ZM19.2291 23.0541C19.284 23.0541 19.339 23.1091 19.339 23.164V24.5375C19.339 24.5924 19.284 24.6474 19.2291 24.6474H10.5485C10.4936 24.6474 10.4386 24.5924 10.4386 24.5375V23.164C10.4386 23.1091 10.4936 23.0541 10.5485 23.0541H11.3177H18.6247H19.2291ZM14.2295 1.3527H15.8228V2.94597H14.2295V1.3527ZM4.28533 14.1538V15.7471H2.747V14.1538H4.28533ZM1.75807 2.83609C1.37349 2.83609 1.04385 2.50645 1.04385 2.12187C1.04385 1.73729 1.37349 1.40765 1.75807 1.40765C2.14265 1.40765 2.47229 1.73729 2.47229 2.12187C2.47229 2.56139 2.14265 2.83609 1.75807 2.83609ZM28.2393 0.308836C27.4152 0.308836 26.7559 0.858236 26.5361 1.57247H16.8667V0.803306C16.8667 0.473666 16.6469 0.253906 16.3173 0.253906H13.6252C13.2956 0.253906 13.0758 0.473666 13.0758 0.803306V1.57247H3.51618C3.29642 0.858246 2.58219 0.308836 1.81303 0.308836C0.8241 0.308836 0 1.13294 0 2.12187C0 3.1108 0.8241 3.9349 1.81303 3.9349C2.63713 3.9349 3.29642 3.3855 3.51618 2.67127H9.99914C5.9885 4.4843 3.24148 8.44 3.02172 13.055H2.19761C1.86797 13.055 1.64821 13.2747 1.64821 13.6044V16.2965C1.64821 16.6261 1.86797 16.8459 2.19761 16.8459H4.88969C5.21933 16.8459 5.43909 16.6261 5.43909 16.2965V13.6044C5.43909 13.2747 5.21933 13.055 4.88969 13.055H4.12053C4.39523 7.94554 8.13117 3.71514 13.1307 2.83609V3.44043C13.1307 3.77007 13.3505 3.98983 13.6801 3.98983H14.1197L7.91141 16.1316C7.80153 16.3514 7.85647 16.681 8.07623 16.8459C8.07623 16.8459 10.6035 18.6039 10.7683 21.9553H10.5485C9.88926 21.9553 9.33985 22.5047 9.33985 23.164V24.5375C9.33985 25.1968 9.88925 25.7462 10.5485 25.7462H19.2291C19.8884 25.7462 20.4378 25.1968 20.4378 24.5375V23.164C20.4378 22.5047 19.8884 21.9553 19.2291 21.9553C19.3939 18.6039 21.8113 16.9008 21.9212 16.8459C22.1409 16.681 22.2508 16.4063 22.086 16.1316L15.8777 4.04477H16.3173C16.6469 4.04477 16.8667 3.82501 16.8667 3.49537V2.89103C21.8662 3.77008 25.6022 8.00048 25.8769 13.1099H25.1077C24.7781 13.1099 24.5583 13.3297 24.5583 13.6593V16.2965C24.5583 16.6261 24.7781 16.8459 25.1077 16.8459H27.7998C28.1294 16.8459 28.3492 16.6261 28.3492 16.2965V13.6044C28.3492 13.2747 28.1294 13.055 27.7998 13.055H26.9757C26.7559 8.49493 24.0089 4.53923 19.9983 2.67126H26.4812C26.701 3.38548 27.4152 3.93489 28.1844 3.93489C29.1733 3.93489 29.9974 3.11079 29.9974 2.12186C30.0524 1.13294 29.2283 0.308826 28.2393 0.308826L28.2393 0.308836Z" fill="white"/>
</svg>
