<svg width="102" height="23" viewBox="0 0 102 23" fill="none" xmlns="http://www.w3.org/2000/svg">
<path fill-rule="evenodd" clip-rule="evenodd" d="M40.3883 8.22303V18.0666H42.589V5.27474H39.5431L35.6716 14.7762L31.9145 5.27474H28.7446V18.0665H30.8127V8.22207H30.8837L34.8511 18.0666H36.4119L40.3173 8.22304L40.3883 8.22303ZM45.7687 4.99411C45.4138 4.99411 45.1043 5.11493 44.8499 5.35435C44.5946 5.59445 44.4651 5.89674 44.4651 6.2535C44.4651 6.60465 44.593 6.90143 44.846 7.13514C45.0973 7.36818 45.4078 7.48629 45.7688 7.48629C46.1298 7.48629 46.4414 7.36818 46.6957 7.13553C46.9517 6.90143 47.0815 6.60474 47.0815 6.2535C47.0815 5.90922 46.9552 5.61002 46.7063 5.36402C46.4576 5.11851 46.142 4.9941 45.7687 4.9941M46.8249 8.8994H44.6685V18.0666H46.8249V8.8994ZM53.2559 8.67846C52.2666 8.67846 51.3842 8.8906 50.6337 9.30879C49.8815 9.72795 49.2999 10.3263 48.9041 11.0873C48.5101 11.8463 48.3101 12.733 48.3101 13.7218C48.3101 14.588 48.504 15.3829 48.8874 16.0834C49.2709 16.7852 49.8138 17.3341 50.501 17.7149C51.1873 18.0952 51.9804 18.2879 52.8586 18.2879C53.8834 18.2879 54.7583 18.0831 55.4599 17.679L55.4882 17.6627V15.6871L55.3976 15.7533C55.0798 15.9848 54.7247 16.1695 54.3426 16.3027C53.9614 16.4357 53.614 16.5029 53.3093 16.5029C52.4631 16.5029 51.7838 16.2381 51.2908 15.7161C50.7967 15.1935 50.5461 14.4596 50.5461 13.536C50.5461 12.6067 50.8074 11.8539 51.3223 11.2984C51.8357 10.7446 52.5162 10.4637 53.3448 10.4637C54.0536 10.4637 54.7443 10.7037 55.3978 11.1777L55.4882 11.2434V9.16176L55.459 9.14532C55.2131 9.00766 54.8777 8.894 54.4614 8.80781C54.0467 8.72181 53.6412 8.67847 53.2559 8.67847M59.2741 10.4869V8.8993H57.1177V18.0666H59.2741V13.3772C59.2741 12.5798 59.4549 11.9247 59.8117 11.4299C60.1639 10.941 60.6332 10.6932 61.2063 10.6932C61.4006 10.6932 61.6186 10.7253 61.8547 10.7886C62.0884 10.8516 62.2577 10.92 62.3575 10.992L62.4482 11.0576V8.88363L62.4133 8.86863C62.2125 8.78331 61.9284 8.74026 61.5689 8.74026C61.027 8.74026 60.542 8.91439 60.1267 9.25721C59.7621 9.55854 59.4986 9.9717 59.2971 10.4869L59.2741 10.4869ZM67.4459 8.67846C65.9339 8.67846 64.7331 9.12141 63.8775 9.99502C63.0219 10.8687 62.5879 12.0778 62.5879 13.589C62.5879 15.025 63.0116 16.1789 63.8468 17.02C64.682 17.8614 65.8185 18.2876 67.2248 18.2876C68.6899 18.2876 69.867 17.8385 70.7227 16.9528C71.5782 16.068 72.0118 14.8704 72.0118 13.3945C72.0118 11.9367 71.6049 10.7735 70.8021 9.93805C69.999 9.10216 68.8697 8.67846 67.4459 8.67846M67.3486 16.5029C66.5565 16.5029 65.9316 16.2401 65.4914 15.7226C65.0483 15.2025 64.8243 14.4611 64.8243 13.5187C64.8243 12.5466 65.0486 11.7858 65.4919 11.2564C65.932 10.7306 66.5507 10.4637 67.3311 10.4637C68.0878 10.4637 68.6903 10.7186 69.1221 11.2217C69.5559 11.7275 69.776 12.4822 69.776 13.4656C69.776 14.4611 69.5689 15.2258 69.1606 15.7373C68.7552 16.245 68.1459 16.5029 67.3486 16.5029M76.5536 8.67846C75.5253 8.67846 74.6747 8.94148 74.025 9.46008C73.3712 9.98177 73.0396 10.666 73.0396 11.4939C73.0396 11.9243 73.1112 12.3066 73.2521 12.6309C73.3938 12.9562 73.6131 13.2426 73.9044 13.483C74.1936 13.7214 74.6399 13.9712 75.2313 14.2253C75.7286 14.4299 76.0993 14.603 76.3349 14.7394C76.5651 14.8731 76.7285 15.0074 76.8208 15.1383C76.9105 15.2664 76.9559 15.4417 76.9559 15.658C76.9559 16.2739 76.4947 16.5736 75.5456 16.5736C75.1936 16.5736 74.7921 16.5001 74.3522 16.3551C73.9155 16.2124 73.5033 16.0034 73.1301 15.7355L73.0394 15.6705V17.7722L73.0727 17.7877C73.3816 17.9303 73.771 18.0505 74.23 18.1451C74.6882 18.2398 75.1044 18.288 75.466 18.288C76.5818 18.288 77.4804 18.0237 78.1361 17.502C78.7959 16.9768 79.1303 16.2764 79.1303 15.4198C79.1303 14.8019 78.9503 14.272 78.5955 13.8446C78.2431 13.4207 77.6314 13.0315 76.7783 12.6875C76.0987 12.4148 75.6633 12.1883 75.4836 12.0145C75.3104 11.8465 75.2225 11.609 75.2225 11.3083C75.2225 11.0417 75.3311 10.8281 75.5539 10.6551C75.7784 10.4813 76.0909 10.3929 76.4829 10.3929C76.8466 10.3929 77.2187 10.4503 77.5889 10.5629C77.9587 10.6755 78.2835 10.8264 78.5547 11.0108L78.6439 11.0718V9.07806L78.6096 9.06335C78.3595 8.95607 78.0296 8.86427 77.6289 8.78978C77.2301 8.71578 76.8683 8.67844 76.5536 8.67844M84.9311 8.67846C83.4194 8.67846 82.2187 9.12141 81.3626 9.99502C80.5071 10.8687 80.0733 12.0778 80.0733 13.589C80.0733 15.0244 80.4968 16.1789 81.332 17.02C82.1672 17.8614 83.3038 18.2876 84.7101 18.2876C86.1754 18.2876 87.3522 17.8385 88.2079 16.9528C89.0635 16.068 89.497 14.8704 89.497 13.3945C89.497 11.9367 89.0902 10.7735 88.2876 9.93805C87.4846 9.10216 86.3551 8.67846 84.9311 8.67846M84.834 16.5029C84.0417 16.5029 83.417 16.2401 82.9767 15.7226C82.5338 15.2025 82.3094 14.4609 82.3094 13.5187C82.3094 12.5466 82.5338 11.7858 82.9769 11.2564C83.4175 10.7306 84.0362 10.4637 84.8162 10.4637C85.5732 10.4637 86.1758 10.7186 86.6074 11.2217C87.0412 11.7274 87.2613 12.4822 87.2613 13.4656C87.2613 14.4611 87.0543 15.2258 86.6461 15.7373C86.2407 16.245 85.631 16.5029 84.834 16.5029M101 10.6579V8.89931H98.816V6.16529L98.7425 6.18792L96.6913 6.81554L96.6508 6.82782V8.8994H93.4132V7.74535C93.4132 7.20799 93.5333 6.79676 93.7701 6.52252C94.0053 6.25156 94.3417 6.11381 94.7707 6.11381C95.0791 6.11381 95.3984 6.18646 95.7197 6.32972L95.8003 6.3657V4.51361L95.7624 4.49968C95.4626 4.39192 95.0549 4.33765 94.5494 4.33765C93.9124 4.33765 93.3337 4.47627 92.8289 4.751C92.3238 5.02611 91.9266 5.41886 91.6483 5.91821C91.3709 6.41697 91.2302 6.99303 91.2302 7.63052V8.8993H89.7095V10.6579H91.2302V18.0668H93.4132V10.6579H96.6508V15.3661C96.6508 17.3052 97.5655 18.2878 99.3693 18.2878C99.6657 18.2878 99.9776 18.2531 100.296 18.1851C100.62 18.1152 100.841 18.0455 100.971 17.971L101 17.954V16.1791L100.911 16.2378C100.793 16.3167 100.645 16.3813 100.472 16.4293C100.299 16.4781 100.153 16.5026 100.041 16.5026C99.6185 16.5026 99.3058 16.3887 99.1119 16.164C98.9157 15.9373 98.8161 15.5408 98.8161 14.9861V10.658L101 10.6579Z" fill="white"/>
<path d="M40.3883 8.22303H40.8883V7.72296L40.3883 7.72303L40.3883 8.22303ZM40.3883 18.0666H39.8883V18.5666H40.3883V18.0666ZM42.589 18.0666V18.5666H43.089V18.0666H42.589ZM42.589 5.27474H43.089V4.77474H42.589V5.27474ZM39.5431 5.27474V4.77474H39.207L39.0801 5.08606L39.5431 5.27474ZM35.6716 14.7762L35.2067 14.96L35.6647 16.1183L36.1347 14.9648L35.6716 14.7762ZM31.9145 5.27474L32.3795 5.09088L32.2545 4.77474H31.9145V5.27474ZM28.7446 5.27474V4.77474H28.2446V5.27474H28.7446ZM28.7446 18.0665H28.2446V18.5665H28.7446V18.0665ZM30.8127 18.0665V18.5665H31.3127V18.0665H30.8127ZM30.8127 8.22207V7.72207H30.3127V8.22207H30.8127ZM30.8837 8.22207L31.3475 8.03517L31.2213 7.72207H30.8837V8.22207ZM34.8511 18.0666L34.3874 18.2535L34.5136 18.5666H34.8511V18.0666ZM36.4119 18.0666V18.5666H36.7514L36.8766 18.251L36.4119 18.0666ZM40.3173 8.22304L40.3172 7.72304L39.9778 7.72308L39.8526 8.03864L40.3173 8.22304ZM44.8499 5.35435L45.1924 5.71862L45.1927 5.71841L44.8499 5.35435ZM44.846 7.13514L45.186 6.76851L45.1853 6.76789L44.846 7.13514ZM46.6957 7.13553L46.3583 6.76656L46.3582 6.76662L46.6957 7.13553ZM46.7063 5.36402L47.0578 5.0084L47.0575 5.00817L46.7063 5.36402ZM46.8249 8.8994H47.3249V8.3994H46.8249V8.8994ZM44.6685 8.8994V8.3994H44.1685V8.8994H44.6685ZM44.6685 18.0666H44.1685V18.5666H44.6685V18.0666ZM46.8249 18.0666V18.5666H47.3249V18.0666H46.8249ZM50.6337 9.30879L50.3903 8.87201L50.3903 8.87203L50.6337 9.30879ZM48.9041 11.0873L48.4605 10.8566L48.4603 10.8569L48.9041 11.0873ZM48.8874 16.0834L49.3261 15.8436L49.326 15.8434L48.8874 16.0834ZM50.501 17.7149L50.7434 17.2775L50.7434 17.2775L50.501 17.7149ZM55.4599 17.679L55.2112 17.2452L55.2103 17.2457L55.4599 17.679ZM55.4882 17.6627L55.7369 18.0965L55.9882 17.9525V17.6627H55.4882ZM55.4882 15.6871H55.9882V14.703L55.1934 15.2833L55.4882 15.6871ZM55.3976 15.7533L55.692 16.1574L55.6924 16.1571L55.3976 15.7533ZM54.3426 16.3027L54.1781 15.8305L54.1779 15.8306L54.3426 16.3027ZM51.2908 15.7161L51.6543 15.3728L51.6541 15.3727L51.2908 15.7161ZM51.3223 11.2984L50.9556 10.9585L50.9556 10.9585L51.3223 11.2984ZM55.3978 11.1777L55.6916 10.7732L55.6914 10.773L55.3978 11.1777ZM55.4882 11.2434L55.1944 11.648L55.9882 12.2245V11.2434H55.4882ZM55.4882 9.16176H55.9882V8.86927L55.7333 8.72592L55.4882 9.16176ZM55.459 9.14532L55.704 8.70948L55.7032 8.70903L55.459 9.14532ZM54.4614 8.80781L54.3598 9.29739L54.36 9.29743L54.4614 8.80781ZM59.2741 10.4869H58.7741V10.9871L59.2744 10.9869L59.2741 10.4869ZM59.2741 8.8993H59.7741V8.3993H59.2741V8.8993ZM57.1177 8.8993V8.3993H56.6177V8.8993H57.1177ZM57.1177 18.0666H56.6177V18.5666H57.1177V18.0666ZM59.2741 18.0666V18.5666H59.7741V18.0666H59.2741ZM59.8117 11.4299L60.2173 11.7223L60.2174 11.7222L59.8117 11.4299ZM61.8547 10.7886L61.9848 10.3058L61.9843 10.3057L61.8547 10.7886ZM62.3575 10.992L62.6509 10.5871L62.6499 10.5863L62.3575 10.992ZM62.4482 11.0576L62.1549 11.4625L62.9482 12.0373V11.0576H62.4482ZM62.4482 8.88363H62.9482V8.55415L62.6455 8.42418L62.4482 8.88363ZM62.4133 8.86863L62.6105 8.40917L62.6088 8.40844L62.4133 8.86863ZM60.1267 9.25721L59.8084 8.87158L59.8081 8.8718L60.1267 9.25721ZM59.2971 10.4869L59.2973 10.9869L59.6385 10.9868L59.7627 10.669L59.2971 10.4869ZM63.8775 9.99502L63.5203 9.64516L63.5202 9.6452L63.8775 9.99502ZM63.8468 17.02L64.2017 16.6678L64.2016 16.6677L63.8468 17.02ZM70.7227 16.9528L70.3633 16.6052L70.3631 16.6054L70.7227 16.9528ZM70.8021 9.93805L71.1627 9.59162L71.1627 9.59162L70.8021 9.93805ZM65.4914 15.7226L65.8723 15.3987L65.872 15.3984L65.4914 15.7226ZM65.4919 11.2564L65.8752 11.5774L65.8753 11.5774L65.4919 11.2564ZM69.1221 11.2217L69.5016 10.8962L69.5015 10.8961L69.1221 11.2217ZM69.1606 15.7373L69.5513 16.0493L69.5514 16.0492L69.1606 15.7373ZM74.025 9.46008L74.3368 9.85089L74.3369 9.85087L74.025 9.46008ZM73.2521 12.6309L72.7935 12.8301L72.7937 12.8305L73.2521 12.6309ZM73.9044 13.483L73.5863 13.8687L73.5863 13.8687L73.9044 13.483ZM75.2313 14.2253L75.0339 14.6848L75.0411 14.6877L75.2313 14.2253ZM76.3349 14.7394L76.5859 14.307L76.5854 14.3067L76.3349 14.7394ZM76.8208 15.1383L77.2304 14.8515L77.2294 14.8502L76.8208 15.1383ZM74.3522 16.3551L74.5087 15.8803L74.5075 15.8799L74.3522 16.3551ZM73.1301 15.7355L73.4217 15.3293L73.4214 15.3291L73.1301 15.7355ZM73.0394 15.6705L73.3307 15.2641L72.5394 14.6968V15.6705H73.0394ZM73.0394 17.7722H72.5394V18.0911L72.8286 18.2256L73.0394 17.7722ZM73.0727 17.7877L72.8619 18.2411L72.8631 18.2417L73.0727 17.7877ZM74.23 18.1451L74.3312 17.6555L74.331 17.6554L74.23 18.1451ZM78.1361 17.502L78.4474 17.8933L78.4475 17.8932L78.1361 17.502ZM78.5955 13.8446L78.9802 13.5252L78.98 13.5249L78.5955 13.8446ZM76.7783 12.6875L76.9653 12.2238L76.9646 12.2235L76.7783 12.6875ZM75.4836 12.0145L75.1355 12.3734L75.1359 12.3738L75.4836 12.0145ZM75.5539 10.6551L75.2478 10.2598L75.2472 10.2602L75.5539 10.6551ZM77.5889 10.5629L77.7345 10.0846L77.7344 10.0846L77.5889 10.5629ZM78.5547 11.0108L78.8367 10.598L78.8359 10.5974L78.5547 11.0108ZM78.6439 11.0718L78.3618 11.4846L79.1439 12.0189V11.0718H78.6439ZM78.6439 9.07806H79.1439V8.74868L78.8412 8.61866L78.6439 9.07806ZM78.6096 9.06335L78.807 8.60395L78.8067 8.60382L78.6096 9.06335ZM77.6289 8.78978L77.7203 8.2982L77.7201 8.29817L77.6289 8.78978ZM81.3626 9.99502L81.0055 9.64506L81.0054 9.64521L81.3626 9.99502ZM81.332 17.02L81.6868 16.6678L81.6868 16.6677L81.332 17.02ZM88.2079 16.9528L87.8485 16.6052L87.8483 16.6054L88.2079 16.9528ZM88.2876 9.93805L88.6482 9.59166L88.6482 9.59166L88.2876 9.93805ZM82.9767 15.7226L83.3576 15.3986L83.3574 15.3984L82.9767 15.7226ZM82.9769 11.2564L82.5936 10.9353L82.5935 10.9355L82.9769 11.2564ZM86.6074 11.2217L86.9869 10.8962L86.9869 10.8961L86.6074 11.2217ZM86.6461 15.7373L87.0368 16.0493L87.0369 16.0492L86.6461 15.7373ZM101 10.6579L101 11.1579L101.5 11.1579V10.6579H101ZM101 8.89931H101.5V8.39931H101V8.89931ZM98.816 8.89931H98.316V9.39931H98.816V8.89931ZM98.816 6.16529H99.316V5.48815L98.6689 5.68743L98.816 6.16529ZM98.7425 6.18792L98.8888 6.66604L98.8897 6.66577L98.7425 6.18792ZM96.6913 6.81554L96.8365 7.294L96.8376 7.29366L96.6913 6.81554ZM96.6508 6.82782L96.5056 6.34936L96.1508 6.45702V6.82782H96.6508ZM96.6508 8.8994V9.3994H97.1508V8.8994H96.6508ZM93.4132 8.8994H92.9132V9.3994H93.4132V8.8994ZM93.7701 6.52252L93.3925 6.19478L93.3917 6.19576L93.7701 6.52252ZM95.7197 6.32972L95.9236 5.87317L95.9233 5.87304L95.7197 6.32972ZM95.8003 6.3657L95.5964 6.82224L96.3003 7.13657V6.3657H95.8003ZM95.8003 4.51361H96.3003V4.16468L95.9728 4.0443L95.8003 4.51361ZM95.7624 4.49968L95.9349 4.03036L95.9316 4.02915L95.7624 4.49968ZM92.8289 4.751L92.5899 4.31183L92.5898 4.31191L92.8289 4.751ZM91.6483 5.91821L91.2115 5.67478L91.2113 5.67522L91.6483 5.91821ZM91.2302 8.8993V9.3993H91.7302V8.8993H91.2302ZM89.7095 8.8993V8.3993H89.2095V8.8993H89.7095ZM89.7095 10.6579H89.2095V11.1579H89.7095V10.6579ZM91.2302 10.6579H91.7302V10.1579H91.2302V10.6579ZM91.2302 18.0668H90.7302V18.5668H91.2302V18.0668ZM93.4132 18.0668V18.5668H93.9132V18.0668H93.4132ZM93.4132 10.6579V10.1579H92.9132V10.6579H93.4132ZM96.6508 10.6579H97.1508V10.1579H96.6508V10.6579ZM100.296 18.1851L100.401 18.6741L100.401 18.6739L100.296 18.1851ZM100.971 17.971L101.22 18.4049L101.226 18.4012L100.971 17.971ZM101 17.954L101.255 18.3841L101.5 18.2389V17.954H101ZM101 16.1791H101.5V15.2491L100.724 15.762L101 16.1791ZM100.911 16.2378L100.635 15.8207L100.634 15.8217L100.911 16.2378ZM100.472 16.4293L100.339 15.9474L100.337 15.9479L100.472 16.4293ZM99.1119 16.164L99.4904 15.8373L99.49 15.8369L99.1119 16.164ZM98.8161 10.658L98.8161 10.158L98.3161 10.158V10.658H98.8161ZM39.8883 8.22303V18.0666H40.8883V8.22303H39.8883ZM40.3883 18.5666H42.589V17.5666H40.3883V18.5666ZM43.089 18.0666V5.27474H42.089V18.0666H43.089ZM42.589 4.77474H39.5431V5.77474H42.589V4.77474ZM39.0801 5.08606L35.2086 14.5875L36.1347 14.9648L40.0062 5.46341L39.0801 5.08606ZM36.1366 14.5923L32.3795 5.09088L31.4496 5.4586L35.2067 14.96L36.1366 14.5923ZM31.9145 4.77474H28.7446V5.77474H31.9145V4.77474ZM28.2446 5.27474V18.0665H29.2446V5.27474H28.2446ZM28.7446 18.5665H30.8127V17.5665H28.7446V18.5665ZM31.3127 18.0665V8.22207H30.3127V18.0665H31.3127ZM30.8127 8.72207H30.8837V7.72207H30.8127V8.72207ZM30.42 8.40896L34.3874 18.2535L35.3149 17.8797L31.3475 8.03517L30.42 8.40896ZM34.8511 18.5666H36.4119V17.5666H34.8511V18.5666ZM36.8766 18.251L40.7821 8.40743L39.8526 8.03864L35.9471 17.8822L36.8766 18.251ZM40.3174 8.72304L40.3884 8.72303L40.3883 7.72303L40.3172 7.72304L40.3174 8.72304ZM45.7687 4.49411C45.2896 4.49411 44.8566 4.66143 44.5072 4.99028L45.1927 5.71841C45.352 5.56842 45.5381 5.49411 45.7687 5.49411V4.49411ZM44.5075 4.99007C44.1497 5.32643 43.9651 5.76138 43.9651 6.2535H44.9651C44.9651 6.0321 45.0395 5.86246 45.1924 5.71862L44.5075 4.99007ZM43.9651 6.2535C43.9651 6.74059 44.1487 7.17166 44.5067 7.50239L45.1853 6.76789C45.0373 6.63119 44.9651 6.4687 44.9651 6.2535H43.9651ZM44.506 7.50177C44.8551 7.82549 45.2892 7.98629 45.7688 7.98629V6.98629C45.5265 6.98629 45.3395 6.91087 45.186 6.76851L44.506 7.50177ZM45.7688 7.98629C46.2485 7.98629 46.6823 7.82552 47.0332 7.50443L46.3582 6.76662C46.2006 6.91084 46.0111 6.98629 45.7688 6.98629V7.98629ZM47.0332 7.5045C47.3941 7.17438 47.5815 6.74316 47.5815 6.2535H46.5815C46.5815 6.46631 46.5093 6.62847 46.3583 6.76656L47.0332 7.5045ZM47.5815 6.2535C47.5815 5.77295 47.3998 5.34646 47.0578 5.0084L46.3548 5.71964C46.5106 5.87358 46.5815 6.04548 46.5815 6.2535H47.5815ZM47.0575 5.00817C46.7083 4.66347 46.2635 4.4941 45.7687 4.4941V5.4941C46.0206 5.4941 46.2068 5.57354 46.355 5.71986L47.0575 5.00817ZM46.8249 8.3994H44.6685V9.3994H46.8249V8.3994ZM44.1685 8.8994V18.0666H45.1685V8.8994H44.1685ZM44.6685 18.5666H46.8249V17.5666H44.6685V18.5666ZM47.3249 18.0666V8.8994H46.3249V18.0666H47.3249ZM53.2559 8.17846C52.1945 8.17846 51.2259 8.40645 50.3903 8.87201L50.877 9.74556C51.5426 9.37474 52.3388 9.17846 53.2559 9.17846V8.17846ZM50.3903 8.87203C49.5529 9.33867 48.9015 10.0086 48.4605 10.8566L49.3477 11.318C49.6982 10.6441 50.2101 10.1172 50.8771 9.74554L50.3903 8.87203ZM48.4603 10.8569C48.0241 11.6975 47.8101 12.6653 47.8101 13.7218H48.8101C48.8101 12.8007 48.9962 11.9952 49.3479 11.3176L48.4603 10.8569ZM47.8101 13.7218C47.8101 14.6644 48.0217 15.543 48.4488 16.3235L49.326 15.8434C48.9864 15.2228 48.8101 14.5117 48.8101 13.7218H47.8101ZM48.4487 16.3233C48.8768 17.1065 49.487 17.7247 50.2587 18.1522L50.7434 17.2775C50.1406 16.9436 49.6651 16.4638 49.3261 15.8436L48.4487 16.3233ZM50.2587 18.1522C51.0276 18.5783 51.9059 18.7879 52.8586 18.7879V17.7879C52.0549 17.7879 51.3469 17.612 50.7434 17.2775L50.2587 18.1522ZM52.8586 18.7879C53.9481 18.7879 54.9144 18.5702 55.7094 18.1123L55.2103 17.2457C54.6023 17.5959 53.8186 17.7879 52.8586 17.7879V18.7879ZM55.7085 18.1128L55.7369 18.0965L55.2396 17.229L55.2112 17.2452L55.7085 18.1128ZM55.9882 17.6627V15.6871H54.9882V17.6627H55.9882ZM55.1934 15.2833L55.1028 15.3495L55.6924 16.1571L55.783 16.091L55.1934 15.2833ZM55.1032 15.3492C54.8264 15.5508 54.5153 15.713 54.1781 15.8305L54.5071 16.7748C54.934 16.6261 55.3332 16.4188 55.692 16.1574L55.1032 15.3492ZM54.1779 15.8306C53.8336 15.9507 53.5431 16.0029 53.3093 16.0029V17.0029C53.6848 17.0029 54.0892 16.9206 54.5073 16.7747L54.1779 15.8306ZM53.3093 16.0029C52.574 16.0029 52.036 15.7769 51.6543 15.3728L50.9273 16.0595C51.5317 16.6993 52.3522 17.0029 53.3093 17.0029V16.0029ZM51.6541 15.3727C51.2707 14.9671 51.0461 14.3696 51.0461 13.536H50.0461C50.0461 14.5495 50.3227 15.4199 50.9274 16.0596L51.6541 15.3727ZM51.0461 13.536C51.0461 12.7028 51.2782 12.0815 51.689 11.6384L50.9556 10.9585C50.3366 11.6263 50.0461 12.5106 50.0461 13.536H51.0461ZM51.689 11.6384C52.098 11.1971 52.6404 10.9637 53.3448 10.9637V9.96372C52.3921 9.96372 51.5734 10.2921 50.9556 10.9585L51.689 11.6384ZM53.3448 10.9637C53.934 10.9637 54.5239 11.1615 55.1042 11.5824L55.6914 10.773C54.9648 10.2459 54.1732 9.96372 53.3448 9.96372V10.9637ZM55.104 11.5823L55.1944 11.648L55.782 10.8388L55.6916 10.7732L55.104 11.5823ZM55.9882 11.2434V9.16176H54.9882V11.2434H55.9882ZM55.7333 8.72592L55.704 8.70948L55.2139 9.58115L55.2432 9.59759L55.7333 8.72592ZM55.7032 8.70903C55.3963 8.53724 55.0067 8.4101 54.5627 8.31819L54.36 9.29743C54.7487 9.37789 55.0298 9.47808 55.2147 9.58161L55.7032 8.70903ZM54.5629 8.31823C54.1179 8.22593 53.6783 8.17847 53.2559 8.17847V9.17847C53.6041 9.17847 53.9756 9.21769 54.3598 9.29739L54.5629 8.31823ZM59.7741 10.4869V8.8993H58.7741V10.4869H59.7741ZM59.2741 8.3993H57.1177V9.3993H59.2741V8.3993ZM56.6177 8.8993V18.0666H57.6177V8.8993H56.6177ZM57.1177 18.5666H59.2741V17.5666H57.1177V18.5666ZM59.7741 18.0666V13.3772H58.7741V18.0666H59.7741ZM59.7741 13.3772C59.7741 12.6526 59.9383 12.1092 60.2173 11.7223L59.4061 11.1375C58.9715 11.7402 58.7741 12.5069 58.7741 13.3772H59.7741ZM60.2174 11.7222C60.4812 11.3559 60.8034 11.1932 61.2063 11.1932V10.1932C60.4631 10.1932 59.8466 10.5261 59.406 11.1376L60.2174 11.7222ZM61.2063 11.1932C61.3474 11.1932 61.521 11.2168 61.7252 11.2715L61.9843 10.3057C61.7161 10.2338 61.4538 10.1932 61.2063 10.1932V11.1932ZM61.7247 11.2714C61.9454 11.3309 62.0418 11.3807 62.0652 11.3976L62.6499 10.5863C62.4737 10.4593 62.2314 10.3723 61.9848 10.3058L61.7247 11.2714ZM62.0642 11.3969L62.1549 11.4625L62.7416 10.6527L62.6509 10.5871L62.0642 11.3969ZM62.9482 11.0576V8.88363H61.9482V11.0576H62.9482ZM62.6455 8.42418L62.6105 8.40918L62.216 9.32808L62.251 9.34308L62.6455 8.42418ZM62.6088 8.40844C62.3186 8.28516 61.9573 8.24026 61.5689 8.24026V9.24026C61.8995 9.24026 62.1063 9.28146 62.2178 9.32881L62.6088 8.40844ZM61.5689 8.24026C60.9113 8.24026 60.3137 8.45452 59.8084 8.87158L60.4449 9.64283C60.7703 9.37426 61.1427 9.24026 61.5689 9.24026V8.24026ZM59.8081 8.8718C59.3587 9.24325 59.0533 9.73758 58.8314 10.3048L59.7627 10.669C59.9439 10.2058 60.1654 9.87383 60.4452 9.64261L59.8081 8.8718ZM59.2969 9.98691L59.2739 9.98692L59.2744 10.9869L59.2973 10.9869L59.2969 9.98691ZM67.4459 8.17846C65.8333 8.17846 64.4912 8.65377 63.5203 9.64516L64.2347 10.3449C64.975 9.58904 66.0344 9.17846 67.4459 9.17846V8.17846ZM63.5202 9.6452C62.5527 10.6333 62.0879 11.9795 62.0879 13.589H63.0879C63.0879 12.1761 63.4912 11.1042 64.2347 10.3448L63.5202 9.6452ZM62.0879 13.589C62.0879 15.1273 62.5448 16.4184 63.492 17.3723L64.2016 16.6677C63.4784 15.9394 63.0879 14.9226 63.0879 13.589H62.0879ZM63.4919 17.3723C64.4384 18.3257 65.7121 18.7876 67.2248 18.7876V17.7876C65.925 17.7876 64.9257 17.3971 64.2017 16.6678L63.4919 17.3723ZM67.2248 18.7876C68.7978 18.7876 70.1147 18.3017 71.0823 17.3002L70.3631 16.6054C69.6193 17.3753 68.5821 17.7876 67.2248 17.7876V18.7876ZM71.0822 17.3003C72.0453 16.3042 72.5118 14.9724 72.5118 13.3945H71.5118C71.5118 14.7683 71.111 15.8319 70.3633 16.6052L71.0822 17.3003ZM72.5118 13.3945C72.5118 11.8425 72.0766 10.5428 71.1627 9.59162L70.4416 10.2845C71.1333 11.0043 71.5118 12.0308 71.5118 13.3945H72.5118ZM71.1627 9.59162C70.2444 8.63597 68.9725 8.17846 67.4459 8.17846V9.17846C68.7669 9.17846 69.7535 9.56834 70.4416 10.2845L71.1627 9.59162ZM67.3486 16.0029C66.6762 16.0029 66.2013 15.7856 65.8723 15.3987L65.1105 16.0465C65.6618 16.6947 66.4367 17.0029 67.3486 17.0029V16.0029ZM65.872 15.3984C65.531 14.998 65.3243 14.3875 65.3243 13.5187H64.3243C64.3243 14.5347 64.5657 15.4069 65.1108 16.0468L65.872 15.3984ZM65.3243 13.5187C65.3243 12.6166 65.533 11.9861 65.8752 11.5774L65.1085 10.9354C64.5643 11.5854 64.3243 12.4766 64.3243 13.5187H65.3243ZM65.8753 11.5774C66.2068 11.1813 66.676 10.9637 67.3311 10.9637V9.96371C66.4253 9.96371 65.6573 10.2798 65.1085 10.9355L65.8753 11.5774ZM67.3311 10.9637C67.965 10.9637 68.4199 11.1713 68.7426 11.5473L69.5015 10.8961C68.9607 10.2659 68.2105 9.96371 67.3311 9.96371V10.9637ZM68.7426 11.5473C69.069 11.9278 69.276 12.5464 69.276 13.4656H70.276C70.276 12.4179 70.0428 11.5271 69.5016 10.8962L68.7426 11.5473ZM69.276 13.4656C69.276 14.404 69.0788 15.0382 68.7698 15.4254L69.5514 16.0492C70.0589 15.4133 70.276 14.5182 70.276 13.4656H69.276ZM68.7699 15.4253C68.4807 15.7875 68.0316 16.0029 67.3486 16.0029V17.0029C68.2602 17.0029 69.0298 16.7024 69.5513 16.0493L68.7699 15.4253ZM76.5536 8.17846C75.4395 8.17846 74.4708 8.46455 73.7131 9.06928L74.3369 9.85087C74.8787 9.4184 75.6112 9.17846 76.5536 9.17846V8.17846ZM73.7131 9.06927C72.942 9.68465 72.5396 10.512 72.5396 11.4939H73.5396C73.5396 10.82 73.8005 10.2789 74.3368 9.85089L73.7131 9.06927ZM72.5396 11.4939C72.5396 11.9785 72.6201 12.431 72.7935 12.8301L73.7107 12.4316C73.6023 12.1822 73.5396 11.8701 73.5396 11.4939H72.5396ZM72.7937 12.8305C72.9688 13.2327 73.2381 13.5815 73.5863 13.8687L74.2226 13.0973C73.988 12.9037 73.8187 12.6797 73.7105 12.4312L72.7937 12.8305ZM73.5863 13.8687C73.929 14.1513 74.4253 14.4232 75.034 14.6847L75.4287 13.7659C74.8545 13.5192 74.4582 13.2916 74.2226 13.0972L73.5863 13.8687ZM75.0411 14.6877C75.533 14.8901 75.8786 15.053 76.0843 15.1721L76.5854 14.3067C76.32 14.153 75.9242 13.9697 75.4216 13.7629L75.0411 14.6877ZM76.0838 15.1718C76.2874 15.29 76.3799 15.3807 76.4121 15.4264L77.2294 14.8502C77.0771 14.6342 76.8429 14.4562 76.5859 14.307L76.0838 15.1718ZM76.4112 15.4251C76.4232 15.4422 76.4559 15.5056 76.4559 15.658H77.4559C77.4559 15.3777 77.3977 15.0906 77.2304 14.8515L76.4112 15.4251ZM76.4559 15.658C76.4559 15.819 76.4085 15.8793 76.3344 15.9274C76.2208 16.0011 75.9845 16.0736 75.5456 16.0736V17.0736C76.0558 17.0736 76.5247 16.9962 76.879 16.7661C77.2728 16.5104 77.4559 16.1128 77.4559 15.658H76.4559ZM75.5456 16.0736C75.2606 16.0736 74.913 16.0135 74.5087 15.8803L74.1958 16.83C74.6711 16.9866 75.1267 17.0736 75.5456 17.0736V16.0736ZM74.5075 15.8799C74.1195 15.7531 73.7533 15.5674 73.4217 15.3293L72.8385 16.1416C73.2533 16.4395 73.7115 16.6718 74.1969 16.8304L74.5075 15.8799ZM73.4214 15.3291L73.3307 15.2641L72.7481 16.0768L72.8388 16.1418L73.4214 15.3291ZM72.5394 15.6705V17.7722H73.5394V15.6705H72.5394ZM72.8286 18.2256L72.8619 18.2411L73.2835 17.3343L73.2502 17.3188L72.8286 18.2256ZM72.8631 18.2417C73.217 18.405 73.6457 18.5352 74.1291 18.6348L74.331 17.6554C73.8964 17.5659 73.5461 17.4555 73.2823 17.3337L72.8631 18.2417ZM74.1288 18.6348C74.611 18.7345 75.0621 18.788 75.466 18.788V17.788C75.1467 17.788 74.7653 17.7452 74.3312 17.6555L74.1288 18.6348ZM75.466 18.788C76.6572 18.788 77.6777 18.5057 78.4474 17.8933L77.8248 17.1108C77.2831 17.5417 76.5064 17.788 75.466 17.788V18.788ZM78.4475 17.8932C79.2287 17.2714 79.6303 16.4259 79.6303 15.4198H78.6303C78.6303 16.1269 78.3632 16.6822 77.8247 17.1109L78.4475 17.8932ZM79.6303 15.4198C79.6303 14.6991 79.4179 14.0525 78.9802 13.5252L78.2108 14.164C78.4827 14.4915 78.6303 14.9046 78.6303 15.4198H79.6303ZM78.98 13.5249C78.5503 13.0082 77.8497 12.5804 76.9653 12.2238L76.5913 13.1513C77.4131 13.4826 77.9358 13.8332 78.211 14.1642L78.98 13.5249ZM76.9646 12.2235C76.6332 12.0905 76.3707 11.9725 76.1741 11.8703C75.9681 11.7631 75.8673 11.69 75.8313 11.6551L75.1359 12.3738C75.2796 12.5128 75.4863 12.6398 75.7128 12.7575C75.9487 12.8802 76.2437 13.0118 76.5921 13.1516L76.9646 12.2235ZM75.8317 11.6555C75.7783 11.6037 75.7225 11.509 75.7225 11.3083H74.7225C74.7225 11.7091 74.8426 12.0893 75.1355 12.3734L75.8317 11.6555ZM75.7225 11.3083C75.7225 11.2066 75.7512 11.1349 75.8605 11.0501L75.2472 10.2602C74.911 10.5213 74.7225 10.8768 74.7225 11.3083H75.7225ZM75.86 11.0505C75.9691 10.966 76.1606 10.8929 76.4829 10.8929V9.89289C76.0212 9.89289 75.5877 9.99662 75.2478 10.2598L75.86 11.0505ZM76.4829 10.8929C76.794 10.8929 77.1171 10.942 77.4433 11.0413L77.7344 10.0846C77.3204 9.95865 76.8993 9.89289 76.4829 9.89289V10.8929ZM77.4432 11.0413C77.773 11.1417 78.0505 11.2725 78.2734 11.4242L78.8359 10.5974C78.5166 10.3802 78.1444 10.2094 77.7345 10.0846L77.4432 11.0413ZM78.2726 11.4237L78.3618 11.4846L78.9259 10.6589L78.8367 10.598L78.2726 11.4237ZM79.1439 11.0718V9.07806H78.1439V11.0718H79.1439ZM78.8412 8.61866L78.807 8.60395L78.4123 9.52275L78.4465 9.53746L78.8412 8.61866ZM78.8067 8.60382C78.5101 8.47662 78.1409 8.37639 77.7203 8.2982L77.5375 9.28135C77.9183 9.35215 78.2088 9.43551 78.4125 9.52287L78.8067 8.60382ZM77.7201 8.29817C77.2992 8.22006 76.906 8.17844 76.5536 8.17844V9.17844C76.8306 9.17844 77.161 9.21149 77.5377 9.28139L77.7201 8.29817ZM84.9311 8.17846C83.3188 8.17846 81.9769 8.65381 81.0055 9.64506L81.7197 10.345C82.4606 9.589 83.52 9.17846 84.9311 9.17846V8.17846ZM81.0054 9.64521C80.0378 10.6333 79.5733 11.9796 79.5733 13.589H80.5733C80.5733 12.176 80.9764 11.1041 81.7199 10.3448L81.0054 9.64521ZM79.5733 13.589C79.5733 15.1266 80.0299 16.4184 80.9772 17.3723L81.6868 16.6677C80.9636 15.9394 80.5733 14.9221 80.5733 13.589H79.5733ZM80.9771 17.3723C81.9235 18.3257 83.1974 18.7876 84.7101 18.7876V17.7876C83.4102 17.7876 82.4108 17.3971 81.6868 16.6678L80.9771 17.3723ZM84.7101 18.7876C86.2832 18.7876 87.5999 18.3017 88.5675 17.3002L87.8483 16.6054C87.1045 17.3753 86.0675 17.7876 84.7101 17.7876V18.7876ZM88.5673 17.3004C89.5307 16.3042 89.997 14.9724 89.997 13.3945H88.997C88.997 14.7683 88.5963 15.8319 87.8485 16.6052L88.5673 17.3004ZM89.997 13.3945C89.997 11.8426 89.5619 10.5428 88.6482 9.59166L87.927 10.2844C88.6185 11.0043 88.997 12.0308 88.997 13.3945H89.997ZM88.6482 9.59166C87.73 8.63594 86.4579 8.17846 84.9311 8.17846V9.17846C86.2524 9.17846 87.2391 9.56837 87.927 10.2844L88.6482 9.59166ZM84.834 16.0029C84.1615 16.0029 83.6868 15.7856 83.3576 15.3986L82.5959 16.0466C83.1472 16.6947 83.9218 17.0029 84.834 17.0029V16.0029ZM83.3574 15.3984C83.0164 14.9979 82.8094 14.3871 82.8094 13.5187H81.8094C81.8094 14.5347 82.0512 15.407 82.5961 16.0468L83.3574 15.3984ZM82.8094 13.5187C82.8094 12.6166 83.0182 11.9861 83.3603 11.5774L82.5935 10.9355C82.0494 11.5854 81.8094 12.4766 81.8094 13.5187H82.8094ZM83.3602 11.5775C83.6922 11.1813 84.1616 10.9637 84.8162 10.9637V9.96369C83.9108 9.96369 83.1428 10.2799 82.5936 10.9353L83.3602 11.5775ZM84.8162 10.9637C85.4505 10.9637 85.9054 11.1713 86.2279 11.5473L86.9869 10.8961C86.4461 10.2659 85.6959 9.96369 84.8162 9.96369V10.9637ZM86.2279 11.5472C86.5543 11.9278 86.7613 12.5465 86.7613 13.4656H87.7613C87.7613 12.4179 87.528 11.5271 86.9869 10.8962L86.2279 11.5472ZM86.7613 13.4656C86.7613 14.404 86.5643 15.0382 86.2553 15.4254L87.0369 16.0492C87.5443 15.4133 87.7613 14.5181 87.7613 13.4656H86.7613ZM86.2554 15.4253C85.9662 15.7875 85.5167 16.0029 84.834 16.0029V17.0029C85.7453 17.0029 86.5152 16.7025 87.0368 16.0493L86.2554 15.4253ZM101.5 10.6579V8.89931H100.5V10.6579H101.5ZM101 8.39931H98.816V9.39931H101V8.39931ZM99.316 8.89931V6.16529H98.316V8.89931H99.316ZM98.6689 5.68743L98.5954 5.71006L98.8897 6.66577L98.9632 6.64314L98.6689 5.68743ZM98.5963 5.7098L96.545 6.33742L96.8376 7.29366L98.8888 6.66604L98.5963 5.7098ZM96.5461 6.33708L96.5056 6.34936L96.796 7.30627L96.8365 7.29399L96.5461 6.33708ZM96.1508 6.82782V8.8994H97.1508V6.82782H96.1508ZM96.6508 8.3994H93.4132V9.3994H96.6508V8.3994ZM93.9132 8.8994V7.74535H92.9132V8.8994H93.9132ZM93.9132 7.74535C93.9132 7.2718 94.0204 6.99771 94.1486 6.84928L93.3917 6.19576C93.0463 6.59581 92.9132 7.14418 92.9132 7.74535H93.9132ZM94.1477 6.85025C94.2696 6.70986 94.456 6.61381 94.7707 6.61381V5.61381C94.2273 5.61381 93.741 5.79326 93.3925 6.19478L94.1477 6.85025ZM94.7707 6.61381C94.9997 6.61381 95.2499 6.66768 95.5162 6.78639L95.9233 5.87304C95.5469 5.70523 95.1584 5.61381 94.7707 5.61381V6.61381ZM95.5159 6.78626L95.5964 6.82224L96.0042 5.90915L95.9236 5.87317L95.5159 6.78626ZM96.3003 6.3657V4.51361H95.3003V6.3657H96.3003ZM95.9728 4.0443L95.9349 4.03037L95.5899 4.96898L95.6278 4.98291L95.9728 4.0443ZM95.9316 4.02915C95.5551 3.89381 95.0825 3.83765 94.5494 3.83765V4.83765C95.0273 4.83765 95.3702 4.89003 95.5933 4.9702L95.9316 4.02915ZM94.5494 3.83765C93.8386 3.83765 93.176 3.99282 92.5899 4.31183L93.0679 5.19016C93.4914 4.95971 93.9863 4.83765 94.5494 4.83765V3.83765ZM92.5898 4.31191C92.0022 4.63196 91.5362 5.09232 91.2115 5.67478L92.085 6.16163C92.317 5.7454 92.6455 5.42025 93.0681 5.19008L92.5898 4.31191ZM91.2113 5.67522C90.888 6.25662 90.7302 6.91805 90.7302 7.63052H91.7302C91.7302 7.068 91.8539 6.57731 92.0852 6.1612L91.2113 5.67522ZM90.7302 7.63052V8.8993H91.7302V7.63052H90.7302ZM91.2302 8.3993H89.7095V9.3993H91.2302V8.3993ZM89.2095 8.8993V10.6579H90.2095V8.8993H89.2095ZM89.7095 11.1579H91.2302V10.1579H89.7095V11.1579ZM90.7302 10.6579V18.0668H91.7302V10.6579H90.7302ZM91.2302 18.5668H93.4132V17.5668H91.2302V18.5668ZM93.9132 18.0668V10.6579H92.9132V18.0668H93.9132ZM93.4132 11.1579H96.6508V10.1579H93.4132V11.1579ZM96.1508 10.6579V15.3661H97.1508V10.6579H96.1508ZM96.1508 15.3661C96.1508 16.4058 96.3955 17.2799 96.9676 17.8947C97.5459 18.5162 98.3789 18.7878 99.3693 18.7878V17.7878C98.5559 17.7878 98.0296 17.5681 97.6997 17.2135C97.3635 16.8523 97.1508 16.2655 97.1508 15.3661H96.1508ZM99.3693 18.7878C99.7043 18.7878 100.051 18.7486 100.401 18.6741L100.192 17.6961C99.904 17.7576 99.6271 17.7878 99.3693 17.7878V18.7878ZM100.401 18.6739C100.729 18.6032 101.017 18.521 101.22 18.4049L100.723 17.5371C100.665 17.57 100.512 17.6272 100.191 17.6963L100.401 18.6739ZM101.226 18.4012L101.255 18.3841L100.745 17.5239L100.716 17.5409L101.226 18.4012ZM101.5 17.954V16.1791H100.5V17.954H101.5ZM100.724 15.762L100.635 15.8207L101.187 16.6549L101.276 16.5962L100.724 15.762ZM100.634 15.8217C100.569 15.865 100.473 15.9103 100.339 15.9474L100.606 16.9111C100.818 16.8523 101.016 16.7685 101.188 16.654L100.634 15.8217ZM100.337 15.9479C100.185 15.9907 100.089 16.0026 100.041 16.0026V17.0026C100.218 17.0026 100.412 16.9655 100.608 16.9106L100.337 15.9479ZM100.041 16.0026C99.7001 16.0026 99.5544 15.9115 99.4904 15.8373L98.7334 16.4907C99.0572 16.8659 99.5368 17.0026 100.041 17.0026V16.0026ZM99.49 15.8369C99.4162 15.7516 99.3161 15.5109 99.3161 14.9861H98.3161C98.3161 15.5706 98.4152 16.123 98.7338 16.4912L99.49 15.8369ZM99.3161 14.9861V10.658H98.3161V14.9861H99.3161ZM98.8162 11.158L101 11.1579L101 10.1579L98.8161 10.158L98.8162 11.158Z" fill="black"/>
<path fill-rule="evenodd" clip-rule="evenodd" d="M11.1488 11.1488H1V1H11.1488V11.1488Z" fill="white" stroke="black"/>
<path fill-rule="evenodd" clip-rule="evenodd" d="M22.35 11.1488H12.2016V1H22.35V11.1488Z" fill="white" stroke="black"/>
<path fill-rule="evenodd" clip-rule="evenodd" d="M11.1483 22.3479H1V12.2092H11.1483V22.3479Z" fill="white" stroke="black"/>
<path fill-rule="evenodd" clip-rule="evenodd" d="M22.35 22.3479H12.2016V12.2092H22.35V22.3479Z" fill="white" stroke="black"/>
</svg>
