<svg width="38" height="42" viewBox="0 0 38 42" fill="none" xmlns="http://www.w3.org/2000/svg">
<path d="M20.3178 2.19497C20.7961 1.91883 20.9599 1.30724 20.6838 0.828943C20.4076 0.350651 19.7961 0.186776 19.3178 0.462918L20.3178 2.19497ZM1.74894 11.761L1.24894 10.895C0.92091 11.0843 0.728039 11.4428 0.750734 11.8209L1.74894 11.761ZM1.86883 30.4488C1.90192 31.0001 2.37566 31.4202 2.92695 31.3871C3.47824 31.354 3.89833 30.8802 3.86524 30.329L1.86883 30.4488ZM21.4364 20.8238C21.9147 20.5476 22.0786 19.9361 21.8024 19.4578C21.5263 18.9795 20.9147 18.8156 20.4364 19.0917L21.4364 20.8238ZM2.36758 29.5238C1.88929 29.7999 1.72541 30.4115 2.00156 30.8898C2.2777 31.3681 2.88929 31.532 3.36758 31.2558L2.36758 29.5238ZM19.9377 20.0167C19.9708 20.568 20.4445 20.9881 20.9958 20.955C21.5471 20.9219 21.9672 20.4482 21.9341 19.8969L19.9377 20.0167ZM20.816 1.26903C20.7829 0.717735 20.3091 0.297649 19.7578 0.33074C19.2066 0.36383 18.7865 0.837566 18.8196 1.38886L20.816 1.26903ZM37.009 31.1051C37.4873 30.8289 37.6512 30.2174 37.3751 29.7391C37.0989 29.2608 36.4873 29.0969 36.009 29.373L37.009 31.1051ZM18.4402 40.6711L17.8892 41.5056C18.2053 41.7143 18.6122 41.7265 18.9402 41.5371L18.4402 40.6711ZM3.41803 29.5544C2.95714 29.2501 2.33683 29.377 2.03252 29.8379C1.72822 30.2988 1.85516 30.9191 2.31604 31.2234L3.41803 29.5544ZM35.958 31.0736C36.4189 31.3779 37.0392 31.2509 37.3435 30.7901C37.6478 30.3292 37.5209 29.7089 37.06 29.4046L35.958 31.0736ZM21.4869 19.1223C21.026 18.818 20.4057 18.9449 20.1014 19.4058C19.7971 19.8667 19.924 20.487 20.3849 20.7913L21.4869 19.1223ZM35.5108 30.299C35.5439 30.8503 36.0176 31.2704 36.5689 31.2373C37.1202 31.2042 37.5403 30.7304 37.5072 30.1791L35.5108 30.299ZM35.3909 11.6112L36.3891 11.5513C36.3703 11.2371 36.2046 10.9501 35.9419 10.7767L35.3909 11.6112ZM20.3688 0.494431C19.9079 0.190128 19.2876 0.317065 18.9832 0.777953C18.6789 1.23884 18.8059 1.85915 19.2668 2.16345L20.3688 0.494431ZM19.3178 0.462918L1.24894 10.895L2.24894 12.627L20.3178 2.19497L19.3178 0.462918ZM0.750734 11.8209L1.86883 30.4488L3.86524 30.329L2.74714 11.7011L0.750734 11.8209ZM20.4364 19.0917L2.36758 29.5238L3.36758 31.2558L21.4364 20.8238L20.4364 19.0917ZM21.9341 19.8969L20.816 1.26903L18.8196 1.38886L19.9377 20.0167L21.9341 19.8969ZM36.009 29.373L17.9402 39.8051L18.9402 41.5371L37.009 31.1051L36.009 29.373ZM18.9912 39.8366L3.41803 29.5544L2.31604 31.2234L17.8892 41.5056L18.9912 39.8366ZM37.06 29.4046L21.4869 19.1223L20.3849 20.7913L35.958 31.0736L37.06 29.4046ZM37.5072 30.1791L36.3891 11.5513L34.3927 11.6711L35.5108 30.299L37.5072 30.1791ZM35.9419 10.7767L20.3688 0.494431L19.2668 2.16345L34.8399 12.4457L35.9419 10.7767Z" fill="white"/>
</svg>
