<svg width="30" height="30" viewBox="0 0 30 30" fill="none" xmlns="http://www.w3.org/2000/svg">
<mask id="mask0_31_99" style="mask-type:alpha" maskUnits="userSpaceOnUse" x="0" y="0" width="30" height="30">
<path fill-rule="evenodd" clip-rule="evenodd" d="M4 30C1.79086 30 0 28.2091 0 26V4C0 1.79086 1.79086 0 4 0H26C28.2091 0 30 1.79086 30 4V26C30 28.2091 28.2091 30 26 30H4Z" fill="white"/>
</mask>
<g mask="url(#mask0_31_99)">
<path fill-rule="evenodd" clip-rule="evenodd" d="M28.8 23.9999C28.8 24.6609 28.2609 25.1999 27.5994 25.1999H2.39994C1.73846 25.1999 1.19994 24.6609 1.19994 23.9999V9.60022C1.19994 8.93814 1.7384 8.40022 2.39994 8.40022H7.46465H7.96209L8.31424 8.04753L9.76673 6.5921L9.79608 6.68002L11.1736 5.19058C11.4067 4.93863 11.7179 4.80034 12.0501 4.80034H18.05C18.367 4.80034 18.667 4.92341 18.9019 5.15542L21.787 8.04759L22.1386 8.40028H22.6366H27.5994C28.2609 8.40028 28.8 8.93815 28.8 9.60028V23.9999ZM27.5995 7.20022H22.6367L19.7516 4.30811C19.7481 4.30464 19.7452 4.3023 19.7422 4.29877L19.737 4.2941C19.3034 3.86523 18.7081 3.60034 18.0501 3.60034H12.0501C11.3529 3.60034 10.7312 3.90152 10.2923 4.37614L10.29 4.36913L7.46465 7.20027H2.39994C1.07459 7.20027 0 8.27492 0 9.60021V23.9999C0 25.3253 1.07459 26.3999 2.39994 26.3999H27.5995C28.9254 26.3999 30 25.3253 30 23.9999V9.60021C30 8.27486 28.9254 7.20021 27.5995 7.20021V7.20022Z" fill="white"/>
<path fill-rule="evenodd" clip-rule="evenodd" d="M14.9991 22.7998C11.3599 22.7998 8.39922 19.8386 8.39922 16.1989C8.39922 12.5602 11.3599 9.60015 14.9991 9.60015C18.6382 9.60015 21.5989 12.5602 21.5989 16.1989C21.599 19.8386 18.6382 22.7998 14.9991 22.7998ZM14.9991 8.40015C10.6914 8.40015 7.19922 11.8911 7.19922 16.1989C7.19922 20.5066 10.6914 23.9998 14.9991 23.9998C19.3068 23.9998 22.7989 20.5066 22.7989 16.1989C22.7989 11.8911 19.3068 8.40015 14.9991 8.40015Z" fill="white"/>
</g>
</svg>
