<svg width="30" height="30" viewBox="0 0 30 30" fill="none" xmlns="http://www.w3.org/2000/svg">
<path fill-rule="evenodd" clip-rule="evenodd" d="M12.2974 1.8239C6.51119 1.8239 1.7942 6.54088 1.7942 12.327C1.7942 18.1132 6.51118 22.8302 12.2974 22.8302C18.0835 22.8302 22.8005 18.1132 22.8005 12.327C22.7376 6.54088 18.0206 1.8239 12.2974 1.8239ZM12.2974 24.5283C5.56779 24.5283 0.0332031 19.0566 0.0332031 12.2642C0.0332031 5.53459 5.5049 0 12.2974 0C19.0898 0 24.5615 5.47169 24.5615 12.2642C24.4986 19.0566 19.0269 24.5283 12.2974 24.5283Z" fill="white"/>
<path fill-rule="evenodd" clip-rule="evenodd" d="M28.6479 30.0003L20.0908 21.5061L21.4751 20.1219L29.9693 28.679L28.648 30.0003" fill="white"/>
</svg>
