<svg width="16" height="12" viewBox="0 0 16 12" fill="none" xmlns="http://www.w3.org/2000/svg">
<path fill-rule="evenodd" clip-rule="evenodd" d="M15.0107 5.70446L1.19284 0.274699C0.941183 0.185559 0.702643 0.434578 0.799651 0.683615L1.93234 4.75739C2.00051 4.99857 2.21023 5.17159 2.45927 5.18996L12.0171 5.89829C12.08 5.90353 12.2163 5.92975 12.2163 5.99267C12.2163 6.06082 12.0852 6.08704 12.0223 6.09227L2.57994 6.65272C2.31779 6.66843 2.09498 6.85454 2.03733 7.11144L1.00998 11.5416C0.928725 11.7906 1.16991 12.0266 1.4137 11.9348L15.016 6.29167C15.2912 6.18946 15.286 5.80148 15.0107 5.70447L15.0107 5.70446Z" fill="black"/>
</svg>
