<svg width="72" height="30" viewBox="0 0 72 30" fill="none" xmlns="http://www.w3.org/2000/svg">
<path fill-rule="evenodd" clip-rule="evenodd" d="M61.8158 13.4219C61.8158 11.1882 63.1798 10.2591 64.4251 10.2591C65.6308 10.2591 66.9158 11.1882 66.9158 13.4219H61.8158ZM71.5807 15.2997C71.5807 10.2393 69.1296 6.24636 64.4449 6.24636C59.7401 6.24636 56.8937 10.2395 56.8937 15.2602C56.8937 21.21 60.2543 24.2146 65.0773 24.2146C67.4296 24.2146 69.2086 23.6809 70.5528 22.9298V18.9763C69.2088 19.6485 67.6669 20.0636 65.7099 20.0636C63.7925 20.0636 62.0925 19.3915 61.8751 17.059H71.5413C71.5413 16.8019 71.5807 15.7741 71.5807 15.2997ZM48.0777 19.8659C46.9115 19.8659 46.2195 19.4508 45.7453 18.9369L45.7254 11.6032C46.2394 11.03 46.951 10.6347 48.0777 10.6347C49.8765 10.6347 51.1218 12.6509 51.1218 15.2404C51.1218 17.8892 49.8962 19.8659 48.0777 19.8659H48.0777ZM49.2637 6.24636C47.3265 6.24636 46.0812 7.15561 45.3894 7.78828L45.1323 6.56269H40.7837V29.6109L45.7254 28.5634L45.7452 22.9693C46.4569 23.4833 47.5044 24.2146 49.244 24.2146C52.7823 24.2146 56.0043 21.3682 56.0043 15.1021C55.9846 9.36953 52.723 6.24635 49.2637 6.24635L49.2637 6.24636ZM33.9837 5.08012L38.9453 4.0127V0L33.9838 1.04769V5.07999L33.9837 5.08012ZM33.9837 6.58243H38.9453V23.8785H33.9838V6.58243H33.9837ZM28.6665 8.04513L28.3502 6.58243H24.0805V23.8786H29.0223V12.1568C30.1884 10.6347 32.1652 10.9115 32.778 11.1288V6.58243C32.1455 6.34518 29.8328 5.91029 28.6665 8.04513ZM18.7829 2.29301L13.9597 3.32082L13.94 19.1542C13.94 22.0799 16.1342 24.2344 19.0597 24.2344C20.6806 24.2344 21.8666 23.9379 22.5188 23.5821V19.5694C21.8864 19.8264 18.7631 20.7356 18.7631 17.8101V10.7928H22.5188V6.58243H18.7631L18.7829 2.29301ZM5.42035 11.6032C5.42035 10.8324 6.05288 10.5358 7.1007 10.5358C8.60287 10.5358 10.5005 10.9906 12.0028 11.801V7.15562C10.3622 6.50335 8.74131 6.24637 7.1007 6.24637C3.08786 6.24637 0.419312 8.34174 0.419312 11.8406C0.419312 17.2961 7.93073 16.4265 7.93073 18.7788C7.93073 19.688 7.14017 19.9846 6.03314 19.9846C4.39254 19.9846 2.29717 19.3124 0.636692 18.4031V23.1077C2.47507 23.8984 4.33319 24.2344 6.03314 24.2344C10.1447 24.2344 12.9714 22.1985 12.9714 18.6601C12.9516 12.7696 5.42035 13.8171 5.42035 11.6032V11.6032Z" fill="white"/>
</svg>
