<svg width="37" height="37" viewBox="0 0 37 37" fill="none" xmlns="http://www.w3.org/2000/svg">
<path fill-rule="evenodd" clip-rule="evenodd" d="M34.5105 25.3727H2.3906C2.23499 25.3727 2.10885 25.2466 2.10885 25.091V22.2734H34.7923V25.091C34.7923 25.2466 34.6661 25.3727 34.5105 25.3727H34.5105ZM22.1133 34.3888H14.7878V27.0632H22.1133V34.3888ZM2.3906 1.70542H34.5105C34.6661 1.70542 34.7923 1.83157 34.7923 1.98717V20.5829H2.10884V1.98717C2.10884 1.83156 2.23499 1.70542 2.39059 1.70542H2.3906ZM34.5105 0.0148926H2.3906C1.30134 0.0148926 0.418335 0.897913 0.418335 1.98717V25.091C0.418335 26.1802 1.30135 27.0632 2.39061 27.0632H13.0972V34.3888H8.58919C8.12237 34.3888 7.74393 34.7673 7.74393 35.2341C7.74393 35.7009 8.12237 36.0794 8.58919 36.0794H28.3119C28.7788 36.0794 29.1572 35.7009 29.1572 35.2341C29.1572 34.7673 28.7788 34.3888 28.3119 34.3888H23.8039V27.0632H34.5105C35.5998 27.0632 36.4828 26.1802 36.4828 25.091V1.98718C36.4828 0.897923 35.5998 0.0149126 34.5105 0.0149126L34.5105 0.0148926Z" fill="white"/>
</svg>
